<svg t="1725635391634" class="icon" viewBox="0 0 1024 1024" version="1.1" xmlns="http://www.w3.org/2000/svg" p-id="20803" width="40" height="40"><path d="M768 810.666667a128 128 0 0 1-128 128H256a128 128 0 0 1-128-128V341.333333a128 128 0 0 1 128-128 128 128 0 0 1 128-128h251.776a128 128 0 0 1 92.074667 39.082667l132.224 136.874667A128 128 0 0 1 896 350.208V682.666667a128 128 0 0 1-128 128z m-85.333333 0H384a128 128 0 0 1-128-128V298.666667a42.666667 42.666667 0 0 0-42.666667 42.666666v469.333334a42.666667 42.666667 0 0 0 42.666667 42.666666h384a42.666667 42.666667 0 0 0 42.666667-42.666666zM618.794667 217.002667l145.493333 145.536a12.544 12.544 0 0 1-8.832 21.461333h-145.578667A12.544 12.544 0 0 1 597.333333 371.456V225.877333a12.544 12.544 0 0 1 21.461334-8.874666zM384 170.666667a42.666667 42.666667 0 0 0-42.666667 42.666666v469.333334a42.666667 42.666667 0 0 0 42.666667 42.666666h384a42.666667 42.666667 0 0 0 42.666667-42.666666V350.208a42.666667 42.666667 0 0 0-11.946667-29.653333l-132.266667-136.874667A42.666667 42.666667 0 0 0 635.776 170.666667H384z m42.666667 298.666666h298.666666a42.666667 42.666667 0 0 1 0 85.333334h-298.666666a42.666667 42.666667 0 0 1 0-85.333334z m0 128h298.666666a42.666667 42.666667 0 0 1 0 85.333334h-298.666666a42.666667 42.666667 0 0 1 0-85.333334z" fill="#2e8555" p-id="20804"></path></svg>